# xmcd
#
# Track frame offsets:
#	150
#	21505
#	42280
#	63032
#	82782
#	104362
#	121627
#	141015
#	162622
#	182355
#	203680
#	222627
#	241352
#	259355
#	274030
#
# Disc length: 3907 seconds
#
# Revision: 1
# Processed by: cddbd v1.5.1PL0 Copyright (c) Steve Scherf et al.
# Submitted via: CDex 1.50Beta5
#
DISCID=d00f410f
DTITLE=竹内まりや - オルゴール・ベストセレクション〜山下達郎&竹内まりや作品集〜
DYEAR=2002
DGENRE=
TTITLE0=竹内まりや/毎日がスペシャル
TTITLE1=竹内まりや/真夜中のナイチンゲール
TTITLE2=竹内まりや/ソウルメイトを探して
TTITLE3=竹内まりや/シングル・アゲイン
TTITLE4=竹内まりや/駅
TTITLE5=竹内まりや/本気でオンリーユー
TTITLE6=竹内まりや/リンダ
TTITLE7=竹内まりや/カムフラージュ
TTITLE8=山下達郎/ラブランド、アイランド
TTITLE9=山下達郎/ゲット・バック・イン・ラブ
TTITLE10=山下達郎/RIDE ON TIME
TTITLE11=山下達郎/土曜日の恋人
TTITLE12=山下達郎/高気圧ガール
TTITLE13=山下達郎/おやすみロージー〜Angel Babyへのオマージュ〜
TTITLE14=山下達郎/クリスマス・イブ
EXTD=
EXTT0=
EXTT1=
EXTT2=
EXTT3=
EXTT4=
EXTT5=
EXTT6=
EXTT7=
EXTT8=
EXTT9=
EXTT10=
EXTT11=
EXTT12=
EXTT13=
EXTT14=
PLAYORDER=
